<svg version="1.0" xmlns="http://www.w3.org/2000/svg" width="512" height="512" viewBox="0 0 5120 5120"><path d="M2070 5096c-770-158-1417-642-1775-1329C95 3385 7 3018 7 2575c0-423 77-763 257-1130 131-268 286-485 491-690 353-353 815-602 1295-699 252-51 598-64 840-32 591 78 1103 334 1515 757 355 364 569 770 681 1289 25 117 27 145 31 445 5 343 0 413-43 615-56 258-187 581-324 800-201 323-507 629-830 830-215 134-524 260-800 326-114 27-117 27-525 30-397 3-414 2-525-20z" fill="#55c500"/><path d="M2070 5095c-676-136-1268-534-1645-1105-64-97-205-356-205-376 0-5 32 51 70 124 390 748 1088 1246 1914 1367 82 11 85 13 36 13-30 0-107-10-170-23zm865 10c289-47 523-121 764-241 252-125 434-252 632-438l84-78-70-22c-95-30-143-56-255-136-107-76-213-181-254-253l-28-47-66 61c-207 194-500 308-937 364-822 106-1467-167-1749-740-244-494-229-1144 37-1683l51-102-57-224c-31-123-57-238-57-256 0-43 56-100 96-100 16 0 119 22 229 49l199 49 41-33c161-131 411-245 649-297 85-19 132-22 291-22 218 0 315 16 503 83l109 38 194-119c182-111 197-118 237-115 50 5 77 27 91 71 5 17 15 150 21 295l11 265 39 42c221 240 397 613 460 974 48 281 35 542-38 765-41 127-46 200-17 255 31 59 124 169 167 197 46 31 75 33 194 15 92-14 191-4 273 27 37 14 53 16 61 7 19-17-37 89-93 178-198 319-506 626-827 826-285 178-737 339-996 355l-79 5 90-15zm-325-2000c278-29 461-78 634-168 82-42 117-68 186-137 147-146 195-277 188-516l-3-131 85 18c47 10 95 21 108 24 21 5 23 2 20-21-3-27-7-28-113-48l-110-21-14-43c-7-24-11-45-9-47s54-10 116-17c107-11 112-13 112-35 0-13-1-23-2-23-2 0-57 7-122 15-66 8-120 14-121 12-1-1-8-21-17-45l-16-42 134-42c134-43 147-52 126-86-7-10-40-2-148 36l-139 49-43-76c-139-248-382-429-679-503-74-19-114-22-253-22-183 1-279 20-431 83-299 124-546 408-634 727-2 8-38 6-122-7-158-25-163-25-163 6 0 26 7 28 125 40 33 3 80 8 103 12l44 6-7 36c-4 20-11 39-17 42-6 4-59 10-119 14-108 7-109 7-109 32 0 21 3 24 28 19 15-2 67-8 115-11l88-7-3 48-3 48-105 43c-57 24-106 45-108 47-1 2 0 15 3 29l7 25 94-44c51-24 98-44 102-44 5 0 12 35 15 78 20 245 147 449 343 550 91 47 225 88 329 101 112 14 358 12 505-4zm2271 570c0-5 11-30 24-55s24-40 24-35c0 6-11 30-24 55s-24 41-24 35zM202 3575c-17-37-14-45 4-12 9 16 14 31 11 33-2 2-9-7-15-21zm-31-76c-6-18-9-34-7-36s9 10 15 28 9 34 7 36-9-10-15-28zm-35-95c-9-26-16-52-15-58 0-6 9 13 20 43 10 30 17 56 15 58s-11-17-20-43zm-40-130c-4-14-5-28-3-31 3-2 8 8 11 23 4 14 5 28 3 31-3 2-8-8-11-23zM4 2575c0-60 1-84 3-52s2 81 0 110-3 3-3-58zM4465 848l-40-43 43 40c23 21 42 40 42 42 0 8-9 0-45-39zM680 827c0-1 35-36 78-77l77-75-75 78c-69 71-80 82-80 74zm3599-164l-34-38 38 34c20 19 37 36 37 38 0 8-8 0-41-34zM2538 3c17-2 47-2 65 0 17 2 3 4-33 4s-50-2-32-4z" fill="#fff"/></svg>