<svg width="114" height="172" xmlns="http://www.w3.org/2000/svg" xmlns:xlink="http://www.w3.org/1999/xlink"><defs><path d="M51.917 1.079L5.083 25.049C2.276 26.487 0 30.216 0 33.38v46.893c0 3.164 2.27 6.89 5.083 8.33l48.873 25.014c1.682.86 1.678 2.258 0 3.117L5.083 141.747c-2.807 1.437-2.813 3.763 0 5.203l46.834 23.971c2.808 1.437 7.353 1.44 10.167 0l46.833-23.97c2.807-1.437 5.083-5.166 5.083-8.33V91.728c0-3.164-2.27-6.89-5.083-8.33L60.045 58.384c-1.681-.86-1.678-2.258 0-3.117l48.872-25.014c2.807-1.437 2.813-3.763 0-5.203L62.084 1.079c-2.808-1.437-7.353-1.44-10.167 0z" id="a"/></defs><g fill="none" fill-rule="evenodd"><mask id="b" fill="#fff"><use xlink:href="#a"/></mask><use fill="#05EC40" xlink:href="#a"/><path fill="#00B52E" mask="url(#b)" d="M57 0h57v172H57z"/><path d="M59 144l53.745-27.45c1.675-.854 1.671-2.243 0-3.097L59 86v58z" fill="#004D3F" mask="url(#b)" transform="matrix(-1 0 0 1 173 0)"/><path d="M0 85l53.745-27.45c1.675-.854 1.671-2.243 0-3.097L0 27v58z" fill="#FCFF19" mask="url(#b)"/></g></svg>