<svg xmlns="http://www.w3.org/2000/svg" viewBox="0 0 48 48" width="144" height="144"><path fill="#FF5722" d="M10 33.018h2V19.041c-1.11 1.001-1.699 2.212-2 3.121v10.856zm11-14.913a9.415 9.415 0 00-3-.837v15.749h3V18.105zm-7 14.913h3V17.24c-1.173.03-2.171.23-3 .558v15.22zM4 23.953a5.07 5.07 0 00-2 4.039c0 1.586.795 2.987 2 3.905v-7.944zm36.995-1.937c-1.444 0-2.283.521-2.283.521s-.839-8.488-9.271-8.488c-4.906 0-6.83 2.704-7.441 3.897v15.071h18.297s5.869-.094 5.869-5.453c0-4.125-3.727-5.548-5.171-5.548zM8 23.1a10.411 10.411 0 00-1.341-.088c-.223 0-.441.037-.659.073v9.767c.423.104.861.166 1.311.166H8V23.1z"/></svg>