<svg version="1.0" xmlns="http://www.w3.org/2000/svg" width="600" height="600" viewBox="0 0 6000 6000"><path d="M1435 5829c-153-15-237-82-280-223-14-45-203-902-421-1906-370-1702-397-1833-401-1946-11-251 52-330 297-372 100-17 101-17 96-42-4-14-9-59-12-100-8-99 7-155 55-200 42-41 82-55 199-72 45-7 82-17 82-23 0-5-7-35-15-65-17-65-18-172-2-217 18-47 53-82 104-105 35-15 385-69 1437-220 1508-216 1513-216 1601-171 45 24 76 54 98 98 20 40 1192 3367 1207 3427 16 63 9 173-15 221-27 56-76 84-199 112-60 13-110 26-112 28s6 28 17 58c27 68 36 201 19 255-28 85-65 114-183 145-38 10-71 19-73 22-3 2 7 46 22 96 24 83 26 105 22 214-4 108-7 128-32 175-30 60-89 103-171 127-96 28-3100 677-3155 681-30 3-68 6-85 7-16 2-62 0-100-4z" fill="#252a3c"/><path d="M1814 4995c-25-15-49-40-63-67-11-24-81-288-155-588-185-753-320-1289-324-1286-1 2 6 55 18 117 11 63 24 146 30 184 5 39 12 81 15 95s8 49 10 79c3 29 8 58 12 64 8 13 14 267 7 294-5 19-44 30-44 12 0-6 5-7 10-4 6 3 10-1 10-9 0-17-15-21-24-7-3 5-16 7-29 4-18-4-19-3-7 6 10 7 11 11 3 11-7 0-22-9-33-20-20-20-20-20-17 2 1 11-4 23-12 26-10 3-12-1-8-19 5-20 4-21-6-9-7 8-18 16-26 18-12 3-12 0-1-12 14-17 3-21-19-7-7 5-11 13-8 18 4 6-4 8-18 5-14-2-25-11-25-19 0-13-2-13-17-2-9 8-14 9-10 2 4-6 3-13-2-15-13-5-29-74-451-1919-20-91-45-177-53-190-26-40-36-122-21-166 24-68 56-83 230-104l101-13-33-130c-42-164-43-204-7-246 34-41 51-47 205-70 72-10 133-21 136-24s-9-60-26-126c-41-153-41-192-4-230 16-15 46-33 68-39 60-17 2764-401 2821-401 54 0 101 25 134 70 10 14 288 792 619 1729 460 1306 600 1715 600 1751 0 35-6 53-28 79-26 32-37 35-187 68-88 19-161 35-162 37-2 1 17 60 42 130 26 73 45 145 45 169 0 47-27 99-60 117-12 6-182 45-378 86-2156 453-2742 574-2777 574-25 0-56-10-81-25zm1366-3351c47-152 53-187 26-165-7 6-21 12-32 14-10 1-25 6-31 10-7 5-18 5-25 1-7-5-8-3-3 6 6 9 4 12-6 8-8-3-23 0-33 7-10 8-25 11-34 8-9-4-13-2-9 4 5 7 0 9-11 6-11-2-26 3-35 11-8 9-29 16-45 16-66 0-56 21 66 132 64 59 118 105 120 103s26-74 52-161z" fill="#2f5a55"/><path d="M1845 4966c-42-18-79-65-94-117-6-24-54-208-106-409s-109-414-126-475c-17-60-92-352-167-647s-139-535-141-532c-3 3 13 116 25 179 2 11 6 31 9 45s7 36 10 50 8 48 11 75c4 28 8 53 11 57 4 8 12 59 18 118 2 19 4 35 5 35s3 14 5 30c1 17 6 46 10 65s8 55 9 80 5 51 10 58c4 6 3 12-3 12-5 0-8 16-7 35 2 19-1 35-6 35-4 0-1 11 8 25 15 23 13 30-8 26-12-2-9 13 5 29 6 8 2 6-10-4-19-16-21-22-10-35 10-14 10-14-5-3-12 10-14 20-8 43 10 35 3 39-10 4-11-29-30-33-31-7 0 9-3 12-5 5-3-7 0-22 6-34 11-20 9-20-23 5-33 26-35 26-40 6-3-11-13-20-23-20-16 0-16 1 2 14 10 8 16 18 11 22-4 4-7 2-7-4 0-7-4-12-10-12-5 0-7 7-3 16 5 14 3 15-14 6-11-6-23-8-27-5-3 3-6 0-6-7 0-9-5-8-19 4-17 15-22 16-34 4-13-11-12-15 7-26l21-13-23 4c-17 4-23 0-28-21-4-15-13-52-20-82-29-112-116-486-199-855-83-367-124-550-185-815-70-305-74-329-64-357 15-43 60-62 195-80 68-9 125-17 126-18 2-1-13-64-33-141-62-239-44-268 195-302 73-11 135-22 138-26 4-3-8-60-25-126-41-153-41-192-4-230 16-15 46-33 68-39 60-17 2764-401 2821-401 54 0 101 25 134 70 30 42 1219 3429 1219 3473 0 45-20 88-52 109-13 9-94 30-180 48l-157 33 21 51c93 232 96 291 18 331-15 8-170 44-346 80-175 36-492 102-704 146s-491 102-620 129c-944 198-1446 300-1473 300-18-1-46-7-62-14zm730-506c132-28 292-62 355-76s189-40 280-59c285-60 314-66 319-71 9-9-35 0-629 121-336 69-632 125-656 125-52 0-76-10-123-54-23-21-30-25-23-11 13 25 38 47 77 69 44 24 120 16 400-44zm1075-229c41-11 68-19 60-20-8 0-51 8-95 18-44 11-71 19-60 20 11 0 54-8 95-18zm-456-2630c31-101 55-185 54-185-8-5-97 32-92 37 4 3-3 5-15 2-11-2-21 0-21 6 0 5-11 9-25 9s-25 6-25 13c0 9-2 9-9-1-6-11-11-10-24 3-9 9-22 13-28 10-5-4-18 0-27 8s-33 18-52 22c-42 9-70 23-70 34 0 5 60 63 132 130 87 79 135 116 139 108 4-7 32-95 63-196z" fill="#515a77"/><path d="M1845 4966c-42-18-79-65-94-117-6-24-54-208-106-409s-109-414-126-475c-17-60-181-708-365-1440-245-972-333-1340-330-1368 9-74 49-98 201-121 61-9 124-19 141-21l32-6-34-127c-19-70-34-140-34-155 0-41 26-84 61-103 33-17 2773-414 2859-414 51 0 100 26 131 70 29 41 1219 3433 1219 3474 0 48-23 92-58 110-15 7-85 25-157 40-71 15-140 29-152 32l-23 4 21 53c94 233 97 292 19 332-15 8-170 44-346 80-175 36-492 102-704 146s-491 102-620 129c-944 198-1446 300-1473 300-18-1-46-7-62-14zm730-506c132-28 292-62 355-76s189-40 280-59c285-60 314-66 319-71 9-9-35 0-629 121-336 69-632 125-656 125-52 0-76-10-123-54-23-21-30-25-23-11 13 25 38 47 77 69 44 24 120 16 400-44zm1075-229c41-11 68-19 60-20-8 0-51 8-95 18-44 11-71 19-60 20 11 0 54-8 95-18zm-384-2844c72-232 131-423 130-423 0-1-69 10-153 24l-151 25-52 151c-29 83-55 154-59 158-3 3-71-52-150-123-110-98-149-127-165-124-12 3-82 14-156 25-74 12-136 22-137 24-5 5 752 694 757 689 2-2 63-194 136-426z" fill="#399d6c"/><path d="M2173 4481c-25-12-51-34-66-58-17-27-106-350-308-1116-156-592-285-1073-287-1068-2 6 13 88 32 183 84 414 131 757 105 773-4 3-6 12-2 21 4 12 1 13-21 4-14-5-26-6-26-2s-21 7-48 7c-26 0-55 3-64 7-9 5-19 4-22 0-3-5-26-8-51-8l-46 1-24-80c-31-101-93-332-240-895-64-245-128-479-141-520s-51-183-85-315c-59-229-61-242-48-280 25-70 86-93 302-112 56-5 67-9 63-22-29-97-66-252-66-274 0-41 26-84 61-103 33-17 2773-414 2859-414 51 0 100 26 131 70 29 41 1219 3433 1219 3474 0 48-23 92-58 110-15 8-183 46-372 85-190 38-875 178-1522 310-648 133-1190 241-1205 241s-47-9-70-19zm1242-2561c69-223 129-417 134-431 7-19 5-26-5-26-8 0-14 5-14 10s-7 7-15 3c-8-3-15-1-15 4 0 6-3 9-7 9-30-5-63 2-57 13 4 7 3 8-5 4-6-4-18-2-26 4-8 7-15 9-15 6 0-4-9-2-21 4-21 12-40 17-94 27-16 2-36 10-43 15-7 6-14 9-17 6-2-2 38-139 89-304 51-164 93-300 92-300 0-1-69 10-153 24l-151 25-52 151c-29 83-55 154-59 158-3 3-71-52-150-123-110-98-149-127-165-124-12 3-82 14-156 25-74 12-136 22-137 24-2 2 134 128 302 281s305 281 305 284c0 2-13-8-30-24-20-19-33-25-42-19-7 6-26 11-43 13-16 1-37 9-45 16s-23 11-32 10c-10-2-18 0-18 4s-8 8-17 9c-41 4-63 9-69 15-4 4-16 7-26 7s-18 6-18 13c0 8-4 7-10-3-6-9-10-10-10-3s147 150 327 318c229 214 329 302 334 293 4-7 64-196 134-418z" fill="#74ca8e"/><path d="M2169 4477c-31-16-51-36-67-68-21-40-129-447-692-2594-105-401-211-804-236-895-24-90-44-177-44-193 0-41 26-84 61-103 33-17 2773-414 2859-414 51 0 100 26 131 70 29 41 1219 3433 1219 3474 0 48-23 92-59 110-15 8-162 42-327 75-164 32-851 172-1525 310s-1237 251-1251 251c-13 0-45-10-69-23zm1342-2850c125-397 226-723 225-724 0 0-84 14-186 32s-246 43-322 55l-136 23-52 151c-29 83-55 154-59 158-3 3-71-52-150-123-110-98-149-127-165-124-22 5-280 45-291 45-3 0-3 6 1 13 6 9 5 9-7 0-11-9-51-7-184 13-93 13-170 26-172 28-5 5 1261 1184 1266 1179 3-2 107-328 232-726z" fill="#b3bbc4"/><g fill="#fafbfb"><path d="M2190 4438c-24-13-52-34-62-48s-72-227-139-475c-66-247-152-567-190-710-39-143-203-765-365-1383-327-1245-309-1156-234-1195 25-13 418-73 1428-217 767-110 1407-200 1423-200 39 0 105 34 124 64 9 13 174 471 366 1018 193 546 463 1313 601 1703 137 391 251 727 251 747 1 29-5 44-25 65-29 28-13 25-1553 337-176 36-597 122-935 191s-621 125-630 125-36-10-60-22zm1398-923c600-117 649-128 670-151 12-14 22-37 22-52s-29-119-64-232c-36-113-84-265-106-339-43-139-66-174-118-188-29-7-1266 214-1304 233-32 17-48 43-48 78 0 37 186 704 202 723 17 21 69 53 86 53 8 0 305-56 660-125zm-74-1889c124-396 224-721 222-723s-80 9-172 26c-93 16-234 40-314 52s-150 26-157 31c-6 5-33 73-59 151-25 78-50 145-53 150-4 4-70-49-147-118-76-68-144-125-151-125-6 0-130 18-275 39-145 22-290 43-323 47-33 3-65 9-71 13-7 3 262 261 625 598 350 326 639 589 643 585 3-4 108-331 232-726z"/><path d="M2918 3557c-8-6-32-73-52-147-21-74-64-226-97-337-32-110-57-208-54-216 8-19 1250-245 1273-230 16 9 34 58 92 253 18 58 54 176 82 264 41 131 47 161 36 171-7 7-285 65-618 129s-614 118-626 121c-11 2-28-1-36-8zm173-163c28-4 53-12 55-18s-12-63-31-126-33-116-31-118 43 26 90 62 87 66 89 66 23-42 47-92l43-93 18 55c10 30 27 87 38 126l21 71 64-11c36-6 67-14 70-17 5-4-119-438-128-446-1-1-32 3-70 10l-68 11-44 94c-31 67-47 91-56 86-29-17-76-51-121-88l-48-39-72 12c-39 7-73 14-75 16s3 23 12 47c8 24 36 117 61 208s48 173 51 183c3 11 12 16 20 13 7-3 37-8 65-12zm828-216c19-35 50-92 69-127l35-64-39 6c-21 4-52 9-69 12l-30 6-35-116c-33-109-36-116-57-110-13 3-43 8-68 12-25 3-45 11-45 17s15 59 34 118l33 106-60 11c-57 10-75 17-66 24 2 2 49 32 104 67s111 72 124 82 27 18 30 18c4 0 22-28 40-62z"/></g></svg>