<svg version="1.0" xmlns="http://www.w3.org/2000/svg" width="600" height="600" viewBox="0 0 6000 6000"><path d="M0 3000V0h6000v6000H0V3000z" fill="#402153"/><g fill="#665174"><path d="M0 3000V0h6000v6000H0V3000zm2529 1317c161-193 221-268 221-276 0-4-37-13-82-20-159-22-306-71-409-137-45-29-46-30-23-41 12-6 36-9 53-7s33-1 36-6c3-6 19-10 35-10s32-5 36-11c4-7 27-10 60-7 29 3 51 1 48-4-3-4 2-8 10-8s19 7 24 16c7 12 15 14 33 8 13-4 28-7 33-5 5 1 13-4 18-11 6-11 10-10 17 1s13 12 23 3c8-6 24-9 36-5 15 3 24 0 28-11 3-9 11-13 16-10 13 8 18 17-114-182-60-88-108-168-108-177 0-16-23-55-88-147-82-116-112-166-197-335-220-430-328-814-311-1100 4-60 5-108 2-105-5 6-110 426-126 505-5 28-19 93-30 145-21 97-58 315-81 475-21 142-18 257 9 345 31 100 167 369 287 569 177 295 439 672 455 655 4-5 45-53 89-107zm1-476c0-4-11-8-25-9s-25 2-25 6 11 8 25 8c14 1 25-1 25-5zm17-543c6-18 18-58 27-88 8-30 29-102 46-160s35-121 40-140c25-91 33-121 55-205 13-49 33-126 44-169 12-44 23-81 25-83s6 9 9 25c8 41 67 56 67 16 0-8 11-37 24-64 14-28 28-65 31-83 4-18 11-37 16-42 4-6 19-50 33-99 14-48 35-108 46-133s20-52 20-60 5-23 11-35l11-20 19 21c11 12 27 21 37 21 13-1 11-4-8-15-14-8-21-14-16-15 5 0 1-9-9-20s-14-20-9-20c15 1 59 28 59 36 0 5 5 9 11 9 20 0 43 31 33 46-7 11-9 11-9-3 0-18-20-24-33-11-9 9 22 43 40 43 7 0 13-7 13-15s6-15 14-15c21 0 28 17 10 24-19 7-9 26 14 25 14 0 13-2-3-9-19-8-19-9 2-9 29-1 38 15 16 28-17 10-16 11 4 17 13 3 21 10 18 14-3 5-1 12 5 15 7 4 10-2 8-17-2-12 2-24 7-26 6-1 11 9 13 23s10 25 19 25c10 0 13-6 8-17-4-11 6-7 25 12 29 28 30 30 11 33-39 6-22 27 43 52 24 9 25 8 14-10-7-11-19-21-28-22-12-3-12-5 2-10 13-6 22 2 34 29 10 19 17 41 17 48s6 11 13 8c10-4 11-10 3-24-13-24-4-24 22 0 20 18 20 20 2 30-16 10-15 11 7 9 21-3 25 1 25 22 0 17 6 25 17 25 9 0 26 10 38 23 21 23 31 28 29 15-1-5-1-17 0-28 1-16 3-17 10-5 6 8 7 18 5 22-3 4 1 5 9 3 7-3 25 4 40 15 30 24 37 56 11 46-14-6-15-4-4 9 7 9 22 21 32 26 17 9 18 8 6-10-7-11-9-23-5-27 9-9 36 15 33 29-1 7-1 9 1 5 8-14 29-9 47 11 16 17 16 20 1 35-9 9-13 21-9 27 4 8 9 7 15-2 6-10 9-7 10 11 1 14 5-11 10-54s5-85 1-91c-4-7-90-100-192-206-273-286-302-317-368-398-64-79-159-240-179-305-7-22-21-49-32-60-27-30-114-259-154-406-53-195-92-438-106-660l-7-125-76 78c-291 297-523 696-673 1161-29 92-30 97-10 90 8-4 15-1 15 5s12 18 26 27c22 15 27 15 34 3 7-11 14-9 34 11 15 13 26 29 26 36 0 8 6 11 13 9 6-2 24 6 38 18 25 23 26 26 32 198 4 96 8 183 11 194 2 11 7 45 11 75 3 30 20 129 37 220 16 91 31 174 33 185 16 92 28 153 35 170 5 11 12 50 15 87 4 37 10 80 15 95l8 28 1-30c1-25 3-27 11-13 6 9 11 35 13 57 1 27 5 36 13 30 11-9 24-2 24 13 0 5-4 6-10 3-5-3-10 1-10 9 0 9 5 16 11 16 5 0 8 4 5 9s1 12 10 15c8 3 12 10 9 16-4 6 1 7 10 3 20-7 35 12 35 44 0 12 6 24 13 26 9 4 8 8-3 16-10 7-11 11-2 11 8 0 12 16 12 45 0 25-4 45-10 45-12 0-13 37-2 44 5 3 7 19 4 36-6 40 11 39 25-2zm-41-136c-5-30-21-29-22 2 0 26 2 31 12 22 6-6 11-17 10-24zm-14-72c3-17 2-33-2-35-12-7-25 10-28 38-5 39 24 36 30-3zm-95-147c-3-10-5-2-5 17s2 27 5 18c2-10 2-26 0-35zm1373-473c11-7 6-10-20-10s-31 3-20 10c8 5 17 10 20 10s12-5 20-10zm-1673-847c0-17-5-16-23 1-12 13-12 15 4 13 10 0 19-7 19-14z"/><path d="M2199 3809c-10-6-4-9 19-9 17 0 32 2 32 4 0 9-39 13-51 5zm91-4c0-8 7-15 16-15 14 0 14 3 4 15-7 8-14 15-16 15s-4-7-4-15zm91-12c-1-6-9-13-18-16-10-2 7-5 39-8 31-2 54-1 51 4-2 4-17 7-33 7-15 0-31 6-33 13-4 8-6 8-6 0zm102-780c-18-7-16-23 2-23 8 0 15 7 15 15s-1 15-2 14c-2 0-9-3-15-6zm-89-181c3-5 2-12-4-14-5-2-6-9-1-16 6-10 10-9 14 7 3 12 0 24-5 28-6 3-8 1-4-5zm1156-518c-7-8-19-13-27-10-15 6-17-3-3-24 9-13 12-13 24 3 7 9 18 17 25 17 13 0 15 16 2 24-5 3-14-1-21-10zm-1460-772c0-7-6-12-14-12s-17-4-20-9c-4-5 3-7 14-4 22 6 35 21 26 30-3 4-6 1-6-5z"/></g><g fill="#998aa4"><path d="M0 3000V0h6000v6000H0V3000zm3750 2286c84-123 188-354 175-388-6-16-113-73-122-65-5 6-24-7-81-54-7-5-10-14-7-18 5-9 98-26 125-24 27 3 104-18 120-32 8-7 42-21 75-30 105-29 307-106 400-152 175-87 317-198 397-309 27-38 33-42 39-27 8 21 15-48 25-218 7-132-9-237-58-379-92-261-236-469-488-699-354-323-1051-1048-1157-1203l-47-68 32-98c17-53 51-155 75-225l45-128-33-137c-18-75-43-189-54-252-12-63-26-137-31-165-5-27-13-76-16-108-4-31-8-57-10-57-16 0-231 163-297 225-16 15-30 25-32 23-10-10-34-216-41-345-4-79-9-143-12-143-17 0-126 109-211 210-202 241-365 517-490 832-79 200-202 622-267 923-9 39-22 99-30 135-30 136-53 260-73 395-12 77-26 170-33 207-7 43-8 113-4 196 4 74 3 165-3 213-6 46-15 152-21 234-6 83-16 171-21 196-6 26-12 55-13 65-4 23-36 31-50 13-6-8-23-20-38-28s-25-17-23-21-6-5-18-3c-14 3-30-3-41-16-11-12-30-21-42-21-14 0-22-5-19-12 7-21-30-58-54-53-12 2-19 0-16-4 8-14-23-34-41-27-11 4-22-1-31-14-8-11-22-20-32-20-11 0-21-7-25-15-3-8-16-15-30-15-13 0-27-7-30-17-13-32-25 2-30 82-20 321-14 511 18 574 27 51 133 157 205 204 172 114 450 226 732 296 151 37 188 41 200 21 89-157 175-283 190-278 4 2 50 55 101 118 170 211 193 238 215 248 12 6 72 59 132 119 93 90 117 108 145 110 23 1 40-5 52-18 10-11 30-19 51-19 18 0 33-4 33-9s16-12 35-15c19-4 37-12 41-18 5-7-2-9-20-6-18 4-24 2-18-4 12-12 72 0 72 14 0 6 8 4 18-4 9-9 23-13 31-10 8 2 11 0 7-6-8-14 12-19 62-16 34 1 41-1 32-11-7-9-7-15-1-19 5-4 15 2 21 11 8 13 13 14 16 6 3-7 17-13 30-13 15 0 23-4 19-11-4-6 9-10 37-9 72 1 162-10 172-20 6-6 20-10 32-10s24-6 27-12c2-7 8-10 12-5 11 9-44 156-100 267-45 91-113 200-165 265-30 38-31 40-11 43 12 2 21 8 21 13s9 9 20 9c10 0 25 6 32 14 11 12 20 7 61-37 26-29 74-92 107-141z"/><path d="M2915 3974c-72-91-73-93-33-160 56-98 108-228 155-394 4-13 5-13 13 0 5 8 13 15 17 15 5 0 29 17 54 38 25 20 51 37 58 37 6 0 11 7 11 15s7 15 15 15c9 0 18 7 21 15 4 8 12 15 18 15 7 0 25 14 41 30 16 17 34 30 41 30s21 11 32 25c11 13 22 22 24 19 3-2 16 7 29 21 13 13 29 25 36 25 6 0 20 11 31 25s24 25 29 25 22 13 38 30c15 16 31 28 35 27s26 13 50 32c47 37 46 39-31 65-143 47-359 88-547 102l-90 7-47-59zm1061-226c-6-17-26-210-26-248 0-33 11-38 34-15 8 8 18 15 23 15 4 0 16 11 26 24s32 30 48 36c16 7 29 17 29 22 0 6 6 8 14 5 28-11 4 38-43 86-63 66-100 92-105 75z"/></g><g fill="#bbb3c0"><path d="M0 3000V0h6000v6000H0V3000zm2975 2872c28-6 59-13 71-16 34-7 146-56 211-92 71-40 179-123 275-213 36-33 70-61 75-61s42-38 82-85l72-85h50c35 0 48 3 43 12-5 8 8 9 49 4 36-4 57-2 57 4 0 5 13 10 28 10 16 0 32 3 36 7 3 4 21 7 39 8 18 0 31 5 30 12-2 7 15 10 52 7 30-2 57 1 60 6 4 6 34 10 68 9 61-1 62-2 115-57 60-62 166-197 200-253 26-44 30-68 7-49-24 20-225 17-315-5-119-28-319-109-335-135-5-8 16-132 31-181 3-11 34-23 92-37 100-25 105-26 97-12-5 9 6 12 32 9 4 0 11 9 15 21 4 11 13 20 20 19 19-4 58 11 58 21 0 5-6 8-12 7-7-2-3 1 10 7 12 5 22 16 22 23s3 12 8 12c29-5 52 3 52 18 0 18 38 63 53 63 6 0 19 8 30 18 11 9 17 11 13 5-4-8-1-13 8-13 10 0 13 6 9 16-5 15 30 49 52 49 6 0 18 9 28 19 9 10 17 15 17 10s7 2 16 14c8 12 19 22 23 22 23 0 130-235 181-400 96-308 128-731 71-935-82-292-239-535-503-775-167-152-538-511-554-535-12-18-12-46-4-169l11-147-74-87c-191-224-317-430-392-637-94-259-201-831-221-1182-4-61-10-117-14-124-10-15-152 54-263 129-43 28-82 52-87 52-15 0-267 254-325 328-250 320-445 744-575 1247-41 161-83 357-105 495-8 47-24 139-35 205-24 132-48 283-59 360-6 46-7 47-13 20-22-100-43-276-54-443-7-107-22-144-49-122-9 8-14 6-19-5-3-8-17-15-31-15s-25-4-25-10c0-20-17-10-29 18-8 15-17 35-22 45-30 57-168 414-209 537-120 361-168 690-157 1068 9 322 85 654 210 922 150 323 351 552 662 756 221 145 362 204 650 273 51 12 325 7 390-7z"/><path d="M3044 5832c4-6-2-16-13-22-13-6-18-16-14-26 5-14 8-13 22 5 11 14 23 20 33 16 9-4 19-1 23 5 9 14 6 17-29 26-20 5-27 4-22-4zm-449-16c-27-7-82-29-122-50-76-40-193-138-193-162 0-14 29-13 143 6 45 7 73-2 42-14-8-3-21-20-30-38-24-54-50-91-64-96-9-3-11 0-6 8s4 11-3 6c-12-7 1-66 18-76 6-4 8-14 4-23-3-9-10-14-15-11s-9 1-9-5c0-5 6-12 13-14 7-3 5-6-5-6-10-1-18-6-18-12s-6-9-14-6c-10 4-12 0-9-14 3-10 10-19 15-19s6-5 3-11c-4-6-13-8-20-5-8 3-21-7-31-21-13-21-14-30-6-44 13-20 0-35-20-23-10 5-10 4-1-6s7-16-9-29c-19-16-20-18-3-35 17-16 16-18-9-45-17-18-24-34-20-44s1-17-6-17-10-7-6-16c4-11 2-15-7-11-22 8-13-91 10-110 10-8 12-12 6-8-8 4-13 0-13-10 0-12 4-13 18-6 10 5 24 17 32 25 7 9 17 16 23 16 5 0 2-9-8-20-20-23-13-39 9-21 8 7 17 8 20 3s17-12 30-14c18-4 23-1 18 10-3 10-1 13 7 8 6-4 9-16 6-27-8-25-12-25 294 11l94 11 138 133c165 160 303 274 446 366 58 38 111 71 117 73 17 7-49 72-149 146-139 104-247 164-370 204-27 9-78 26-113 37-69 22-151 25-227 6zm-342-1008c3-9 3-19-1-21s-1-2 6 0c8 1 25 3 38 3s24 5 24 11-9 8-20 4c-12-4-28-1-37 7-14 11-16 11-10-4zm1002-3056c-5-4-20-21-32-38-21-31-21-32-2-27 11 3 18 8 15 11-3 2 4 12 16 21 20 17 23 48 3 33z"/></g><g fill="#dfdbe2"><path d="M0 3000V0h3105l-105 56c-57 31-144 83-194 117-94 64-289 249-372 352-93 115-223 321-299 475-42 85-83 168-91 183-8 16-14 34-14 41s-6 21-14 32c-13 17-14 15-12-29 2-26 0-47-3-47-16 0-59 62-143 209-84 148-278 527-325 636-12 28-36 82-53 120-122 270-264 666-329 915-74 284-95 460-94 780 1 313 23 462 113 763 99 334 319 667 574 873 501 404 1040 529 1457 336 77-35 168-99 308-217l104-88 71 23c39 12 81 26 94 31s35 9 50 9c16 0 22 3 15 8s-9 13-3 22c7 12 11 12 26-1 13-10 16-11 10-1-9 15 41 75 55 66 4-2 10 0 14 6 15 24 270-143 391-257 62-58 178-196 228-273 191-290 300-623 337-1029 30-335-19-521-240-911-123-216-313-497-423-624-10-13-68-17-68-5 0 11-57 12-64 1-3-5 8-6 25-4 16 2 29 0 29-6s-17-13-37-15c-24-3-20-3 10-2 31 1 45-1 38-8-5-5-33-10-63-11-53-1-54 0-52 27 1 15-1 27-5 27-3 0-57-50-120-111l-114-110 8-155 7-154-69-83c-147-175-229-293-311-447-109-204-181-453-251-875-32-192-40-253-51-380-6-66-13-153-17-193l-6-72h2873v6000H0V3000z"/><path d="M2589 5806c-74-21-189-87-248-143l-56-52 33-1c50 0 378 58 454 80 107 32 123 80 38 114-48 19-154 20-221 2z"/></g><g fill="#fefefe"><path d="M0 3000V0h3105l-100 53c-56 29-137 77-180 105-138 91-321 270-447 437-65 86-228 345-228 363 0 6-4 12-10 12-5 0-10-8-10-17 0-15-2-15-14-3-7 8-60 94-118 190-404 673-744 1461-872 2018-54 236-70 384-69 672 0 277 10 369 63 595 93 395 267 716 516 955 204 196 478 366 724 451 174 60 423 85 587 60 195-30 314-91 546-278 44-35 86-63 94-63 9 0 40 20 69 45 28 25 56 45 60 45 9 0 97 71 107 87 21 34 281-115 452-259 120-101 292-307 351-421 129-250 171-360 218-567 63-276 82-557 50-729-50-264-274-679-605-1117-149-198-247-314-264-314-7 0-16-6-18-12-4-10-6-10-6 0-1 8-25 12-86 12h-85v-279l-56-63c-161-180-321-429-391-608-103-263-205-756-233-1130-5-74-13-159-16-187l-6-53h2872v6000H0V3000zm3994-719c3-4-28-9-69-10-46-1-75 2-75 9 0 12 136 14 144 1zM2156 916c8-8 11-17 6-20-4-2-13 4-20 15-14 22-7 25 14 5z"/><path d="M2583 5801c-75-22-183-85-249-145l-49-45h40c22-1 67 6 100 13 33 8 85 17 115 21 95 12 229 44 276 64 40 18 45 24 42 48-6 56-151 79-275 44z"/></g></svg>