<svg xmlns="http://www.w3.org/2000/svg" viewBox="0 0 48 48" width="144" height="144"><path fill="#388e3c" d="M17.204 19.122l-4.907 2.715a.563.563 0 00-.297.492v5.433c0 .203.113.39.297.492l4.908 2.717c.183.101.41.101.593 0l4.907-2.717a.566.566 0 00.295-.492v-5.433a.564.564 0 00-.297-.492l-4.906-2.715a.613.613 0 00-.594 0m25.248 4.891l-.818.452a.093.093 0 00-.049.082v.906c0 .034.019.065.049.082l.818.453a.102.102 0 00.099 0l.818-.453a.095.095 0 00.049-.082v-.906a.094.094 0 00-.05-.082l-.818-.452c-.015-.009-.032-.013-.049-.013s-.034.004-.049.013"/><path fill="#37474f" d="M35.751 13.364l-2.389-1.333a.243.243 0 00-.361.212L33 20.295l-2.203-1.219a.613.613 0 00-.594 0h.001l-4.907 2.715a.563.563 0 00-.297.491v5.433c0 .203.113.39.297.492l4.908 2.717c.183.101.41.101.593 0l4.907-2.717a.565.565 0 00.295-.492V13.788a.487.487 0 00-.249-.424zm-2.885 13.094l-2.23 1.235a.28.28 0 01-.269 0l-2.231-1.235a.255.255 0 01-.136-.224v-2.47c0-.092.051-.177.135-.224l2.231-1.234h-.001a.29.29 0 01.27 0l2.23 1.234a.259.259 0 01.135.225v2.47a.257.257 0 01-.134.223z"/><path fill="#2e7d32" d="M17.204 19.122L12 27.762c0 .203.113.39.297.492l4.908 2.717c.183.101.41.101.593 0L23 22.329a.564.564 0 00-.297-.492l-4.906-2.715a.613.613 0 00-.594 0"/><path fill="#4caf50" d="M17.204 19.122l-4.907 2.715a.563.563 0 00-.297.492l5.204 8.642c.183.101.41.101.593 0l4.907-2.717a.565.565 0 00.296-.492l-5.203-8.64a.613.613 0 00-.594 0"/><path fill="#37474f" d="M47.703 21.791l-4.906-2.715a.613.613 0 00-.594 0h.001l-4.907 2.715a.574.574 0 00-.297.503v5.411c0 .209.114.402.297.503l4.908 2.717a.613.613 0 00.593 0l2.263-1.253a.3.3 0 00-.002-.526l-4.924-2.687a.263.263 0 01-.135-.228v-2.466c0-.092.05-.177.13-.221l2.235-1.236h-.001a.29.29 0 01.27 0l2.235 1.237c.08.044.13.129.13.221v2.012a.241.241 0 00.363.208l2.398-1.393a.483.483 0 00.24-.417v-1.88a.576.576 0 00-.297-.505zm-37 0l-4.906-2.715a.613.613 0 00-.594 0h.001L.297 21.791a.574.574 0 00-.297.503v7.465a.241.241 0 00.363.208l2.398-1.393A.482.482 0 003 28.157v-4.393c0-.092.05-.177.13-.221l2.235-1.236a.29.29 0 01.27 0l2.235 1.237c.08.044.13.129.13.221v4.393a.48.48 0 00.24.417l2.398 1.393a.246.246 0 00.242.001.245.245 0 00.12-.21v-7.464a.576.576 0 00-.297-.504z"/></svg>